<?xml version="1.0" encoding="utf-8"?>
<!-- Generator: Adobe Illustrator 23.1.1, SVG Export Plug-In . SVG Version: 6.00 Build 0)  -->
<svg version="1.1" id="Layer_1" xmlns="http://www.w3.org/2000/svg" xmlns:xlink="http://www.w3.org/1999/xlink" x="0px" y="0px"
	 viewBox="0 0 78.68 78.68" style="enable-background:new 0 0 78.68 78.68;" xml:space="preserve">
<g id="Group_109">
	<g id="Group_108" transform="translate(32 755)">
		<g id="Group_107">
			<path id="Path_128" d="M-0.34-723.83c0-3.71-2.53-3.71-2.53-3.71h-10.39v7.97h9.74C-1.83-719.58-0.34-720.11-0.34-723.83z"/>
			<path id="Path_129" d="M-2.86-714.08h-10.39v9.54h9.91c1.5-0.04,4.24-0.51,4.24-4.63C0.9-714.13-2.86-714.08-2.86-714.08z"/>
			<path id="Path_130" d="M23.73-719.58c-3.17,0.01-5.85,2.36-6.28,5.5h11.72c0.1-2.93-2.19-5.39-5.12-5.5
				C23.95-719.58,23.84-719.58,23.73-719.58z"/>
			<path id="Path_131" d="M7.34-755C-14.39-755-32-737.39-32-715.66c0,21.73,17.61,39.34,39.34,39.34s39.34-17.61,39.34-39.34
				C46.68-737.39,29.06-755,7.34-755z M15.91-731.77h14.72v4.39H15.91V-731.77z M8.46-708.73c0,10.89-11.34,10.54-11.34,10.54
				h-18.56v-35.69h18.57c5.01-0.56,9.51,3.05,10.07,8.06c0.05,0.48,0.07,0.96,0.05,1.45c0.35,3.38-2.09,6.41-5.46,6.79
				C8.97-717.59,8.46-708.73,8.46-708.73z M23.79-703.11c5.93,0,5.72-3.84,5.72-3.84h6.3c0,10.19-12.21,9.49-12.21,9.49
				c-6.97,0.6-13.1-4.55-13.71-11.52c-0.06-0.71-0.06-1.42-0.01-2.12c0,0,0-13.71,13.71-13.71c14.45,0,12.42,15.49,12.42,15.49
				h-18.5c-0.24,3.2,2.15,5.98,5.35,6.22C23.18-703.08,23.49-703.08,23.79-703.11L23.79-703.11z"/>
		</g>
	</g>
</g>
<g id="Group_110" transform="translate(58 755.206)">
	<path id="Path_132" d="M229.39-799.6c0,1.1-0.89,1.99-1.99,1.99s-1.99-0.89-1.99-1.99s0.89-1.99,1.99-1.99
		S229.39-800.7,229.39-799.6C229.39-799.6,229.39-799.6,229.39-799.6z"/>
	<path id="Path_133" d="M232.05-803.12c-0.2-0.52-0.61-0.93-1.13-1.13c-0.35-0.13-0.73-0.2-1.11-0.21
		c-0.63-0.03-0.82-0.03-2.41-0.03s-1.78,0.01-2.41,0.03c-0.38,0-0.75,0.07-1.11,0.21c-0.52,0.2-0.93,0.61-1.13,1.13
		c-0.13,0.36-0.2,0.73-0.21,1.11c-0.03,0.63-0.04,0.82-0.04,2.41c0,1.59,0.01,1.78,0.04,2.41c0,0.38,0.07,0.75,0.21,1.11
		c0.2,0.52,0.61,0.93,1.13,1.13c0.36,0.13,0.73,0.2,1.11,0.21c0.63,0.03,0.82,0.03,2.41,0.03s1.78-0.01,2.41-0.03
		c0.38,0,0.75-0.07,1.11-0.21c0.52-0.2,0.93-0.61,1.13-1.13c0.13-0.35,0.2-0.73,0.21-1.11c0.03-0.63,0.04-0.82,0.04-2.41
		c0-1.6-0.01-1.78-0.04-2.41C232.25-802.39,232.18-802.77,232.05-803.12z M227.4-796.54c-1.69,0-3.07-1.37-3.07-3.07
		s1.37-3.07,3.07-3.07c1.69,0,3.07,1.37,3.07,3.07l0,0C230.46-797.91,229.09-796.54,227.4-796.54z M230.58-802.07
		c-0.4,0-0.72-0.32-0.72-0.72c0-0.4,0.32-0.72,0.72-0.72c0.4,0,0.72,0.32,0.72,0.72C231.3-802.39,230.98-802.07,230.58-802.07
		L230.58-802.07z"/>
	<path id="Path_134" d="M227.4-810c-5.74,0-10.4,4.66-10.4,10.4c0,5.74,4.66,10.4,10.4,10.4c5.74,0,10.4-4.66,10.4-10.4
		C237.8-805.34,233.14-810,227.4-810C227.4-810,227.4-810,227.4-810z M233.33-797.14c-0.01,0.5-0.1,0.99-0.28,1.45
		c-0.31,0.8-0.94,1.44-1.75,1.75c-0.46,0.17-0.95,0.27-1.45,0.28c-0.64,0.03-0.84,0.04-2.46,0.04s-1.82-0.01-2.46-0.04
		c-0.5-0.01-0.99-0.1-1.45-0.28c-0.8-0.31-1.44-0.94-1.75-1.74c-0.17-0.46-0.27-0.95-0.28-1.45c-0.03-0.64-0.04-0.84-0.04-2.46
		c0-1.62,0.01-1.82,0.04-2.46c0.01-0.5,0.1-0.99,0.28-1.45c0.31-0.8,0.94-1.44,1.75-1.75c0.46-0.17,0.95-0.27,1.45-0.28
		c0.64-0.03,0.84-0.04,2.46-0.04s1.82,0.01,2.46,0.04c0.5,0.01,0.99,0.1,1.45,0.28c0.8,0.31,1.44,0.94,1.75,1.75
		c0.17,0.46,0.27,0.95,0.28,1.45c0.03,0.64,0.04,0.84,0.04,2.46C233.37-797.98,233.36-797.78,233.33-797.14L233.33-797.14z"/>
</g>
<path id="Path_135" d="M311.12-54.25c-5.59,0-10.12,4.53-10.12,10.12S305.53-34,311.12-34c5.59,0,10.12-4.53,10.12-10.12l0,0
	C321.25-49.72,316.72-54.25,311.12-54.25z M308.18-38.95h-2.47v-7.41h2.47V-38.95z M306.95-47.37h-0.02
	c-0.71,0.04-1.32-0.5-1.36-1.21s0.5-1.32,1.21-1.36c0.06,0,0.12,0,0.19,0c0.71-0.05,1.33,0.47,1.38,1.18
	c0.05,0.71-0.47,1.33-1.18,1.38C307.09-47.37,307.02-47.37,306.95-47.37z M317.07-38.95h-2.47v-3.96c0-1-0.36-1.68-1.25-1.68
	c-0.57,0-1.08,0.36-1.27,0.9c-0.06,0.19-0.09,0.4-0.08,0.6v4.14h-2.46c0,0,0.03-6.72,0-7.42h2.46v1.05
	c0.46-0.79,1.31-1.26,2.22-1.22c1.62,0,2.84,1.06,2.84,3.34V-38.95z"/>
</svg>
