<?xml version="1.0" encoding="utf-8"?>
<!-- Generator: Adobe Illustrator 23.1.1, SVG Export Plug-In . SVG Version: 6.00 Build 0)  -->
<svg version="1.1" id="Layer_1" xmlns="http://www.w3.org/2000/svg" xmlns:xlink="http://www.w3.org/1999/xlink" x="0px" y="0px"
	 viewBox="0 0 76.86 76.86" style="enable-background:new 0 0 76.86 76.86;" xml:space="preserve">
<g id="Group_110" transform="translate(58 755.206)">
	<path id="Path_132" d="M-12.23-716.79c0,4.06-3.29,7.35-7.35,7.35s-7.35-3.29-7.35-7.35c0-4.06,3.29-7.35,7.35-7.35
		S-12.23-720.85-12.23-716.79C-12.23-716.79-12.23-716.79-12.23-716.79z"/>
	<path id="Path_133" d="M-2.39-729.8c-0.74-1.92-2.26-3.44-4.19-4.19c-1.31-0.49-2.7-0.74-4.09-0.76c-2.33-0.11-3.02-0.13-8.92-0.13
		s-6.59,0.02-8.91,0.13c-1.4,0.02-2.78,0.27-4.09,0.76c-1.92,0.74-3.44,2.26-4.19,4.19c-0.49,1.31-0.74,2.7-0.76,4.1
		c-0.11,2.33-0.13,3.02-0.13,8.92c0,5.89,0.02,6.59,0.13,8.92c0.02,1.4,0.27,2.78,0.76,4.09c0.74,1.92,2.26,3.44,4.19,4.19
		c1.31,0.49,2.7,0.74,4.1,0.76c2.33,0.11,3.02,0.13,8.91,0.13s6.59-0.02,8.92-0.13c1.4-0.02,2.79-0.27,4.1-0.76
		c1.92-0.74,3.44-2.26,4.19-4.19c0.49-1.31,0.74-2.7,0.76-4.09c0.11-2.33,0.13-3.02,0.13-8.92c0-5.89-0.02-6.59-0.13-8.92
		C-1.64-727.1-1.9-728.49-2.39-729.8z M-19.58-705.46c-6.26,0-11.33-5.07-11.33-11.33s5.07-11.33,11.33-11.33
		c6.26,0,11.33,5.07,11.33,11.33v0C-8.25-710.53-13.33-705.46-19.58-705.46z M-7.81-725.91c-1.46,0-2.65-1.18-2.65-2.65
		c0-1.46,1.18-2.65,2.65-2.65c1.46,0,2.65,1.18,2.65,2.65C-5.16-727.1-6.35-725.91-7.81-725.91L-7.81-725.91z"/>
	<path id="Path_134" d="M-19.57-755.21C-40.79-755.21-58-738-58-716.78s17.21,38.43,38.43,38.43s38.43-17.21,38.43-38.43
		S1.65-755.21-19.57-755.21C-19.57-755.21-19.57-755.21-19.57-755.21z M2.36-707.69c-0.04,1.83-0.38,3.64-1.02,5.35
		c-1.15,2.96-3.49,5.31-6.45,6.45c-1.71,0.64-3.52,0.99-5.35,1.02c-2.35,0.11-3.1,0.13-9.09,0.13s-6.74-0.03-9.1-0.13
		c-1.83-0.04-3.64-0.38-5.35-1.02c-2.97-1.14-5.32-3.48-6.47-6.45c-0.64-1.71-0.99-3.52-1.02-5.35c-0.11-2.35-0.13-3.1-0.13-9.1
		s0.03-6.74,0.13-9.09c0.04-1.83,0.38-3.64,1.02-5.36c1.15-2.96,3.49-5.3,6.45-6.45c1.71-0.64,3.52-0.99,5.35-1.02
		c2.35-0.11,3.1-0.13,9.09-0.13s6.74,0.03,9.09,0.13c1.83,0.04,3.64,0.38,5.35,1.02c2.96,1.15,5.31,3.49,6.45,6.45
		c0.64,1.71,0.99,3.52,1.03,5.35c0.11,2.35,0.13,3.1,0.13,9.09c0,5.99-0.02,6.75-0.13,9.1H2.36z"/>
</g>
<path id="Path_135" d="M310.15-55.07c-5.59,0-10.12,4.53-10.12,10.12s4.53,10.12,10.12,10.12c5.59,0,10.12-4.53,10.12-10.12l0,0
	C320.28-50.53,315.74-55.07,310.15-55.07z M307.21-39.77h-2.47v-7.41h2.47V-39.77z M305.98-48.19h-0.02
	c-0.71,0.04-1.32-0.5-1.36-1.21c-0.04-0.71,0.5-1.32,1.21-1.36c0.06,0,0.12,0,0.19,0c0.71-0.05,1.33,0.47,1.38,1.18
	s-0.47,1.33-1.18,1.38C306.12-48.19,306.05-48.19,305.98-48.19z M316.1-39.77h-2.47v-3.96c0-1-0.36-1.68-1.25-1.68
	c-0.57,0-1.08,0.36-1.26,0.9c-0.06,0.19-0.09,0.4-0.08,0.6v4.14h-2.46c0,0,0.03-6.72,0-7.42h2.46v1.05
	c0.46-0.79,1.31-1.26,2.22-1.22c1.62,0,2.84,1.06,2.84,3.34V-39.77z"/>
</svg>
