<?xml version="1.0" encoding="utf-8"?>
<!-- Generator: Adobe Illustrator 23.1.1, SVG Export Plug-In . SVG Version: 6.00 Build 0)  -->
<svg version="1.1" id="Layer_1" xmlns="http://www.w3.org/2000/svg" xmlns:xlink="http://www.w3.org/1999/xlink" x="0px" y="0px"
	 viewBox="0 0 75.92 75.92" style="enable-background:new 0 0 75.92 75.92;" xml:space="preserve">
<path id="Path_135" d="M37.96,0C17,0,0,17,0,37.96s17,37.96,37.96,37.96s37.96-17,37.96-37.96l0,0C75.92,17,58.93,0,37.96,0z
	 M26.93,57.37h-9.25v-27.8h9.25V57.37z M22.31,25.78h-0.06c-2.66,0.16-4.94-1.86-5.1-4.52c-0.16-2.66,1.86-4.94,4.52-5.1
	c0.23-0.01,0.47-0.01,0.7,0.01c2.66-0.21,4.97,1.78,5.18,4.44s-1.78,4.97-4.44,5.18C22.84,25.8,22.57,25.8,22.31,25.78z
	 M60.27,57.37h-9.25V42.51c0-3.75-1.34-6.29-4.68-6.29c-2.13,0.01-4.03,1.36-4.74,3.37c-0.24,0.73-0.34,1.49-0.3,2.25v15.53h-9.24
	c0,0,0.12-25.21,0-27.82h9.24v3.94c1.71-2.96,4.92-4.73,8.33-4.59c6.08,0,10.65,3.97,10.65,12.52V57.37z"/>
</svg>
