<?xml version="1.0" encoding="utf-8"?>
<!-- Generator: Adobe Illustrator 23.1.1, SVG Export Plug-In . SVG Version: 6.00 Build 0)  -->
<svg version="1.1" id="Layer_1" xmlns="http://www.w3.org/2000/svg" xmlns:xlink="http://www.w3.org/1999/xlink" x="0px" y="0px"
	 viewBox="0 0 133.38 120.4" style="enable-background:new 0 0 133.38 120.4;" xml:space="preserve">
<style type="text/css">
	.st0{enable-background:new    ;}
</style>
<g id="Group_112" transform="translate(-733 -314.999)">
	<g id="Group_104" transform="translate(775.059 314.999)">
		<g id="Path_124">
			<path d="M55.3,30.63c-0.55-0.07-1.11-0.1-1.67-0.1c-1.91-0.02-3.81,0.25-5.64,0.78c-1.65,0.48-3.23,1.19-4.7,2.09
				c-1.33,0.82-2.54,1.82-3.6,2.98c-0.53,0.59-1.02,1.22-1.46,1.88c0.09-0.74,0.14-1.49,0.14-2.23c0.07-2.12-0.36-4.23-1.25-6.16
				c-0.81-1.64-1.99-3.07-3.45-4.17c-1.55-1.16-3.28-2.06-5.12-2.66c-2.01-0.68-4.07-1.22-6.16-1.62c-1.56-0.27-3.12-0.62-4.64-1.04
				c-1.36-0.37-2.69-0.86-3.97-1.46c-1.02-0.46-1.94-1.12-2.71-1.93c-0.66-0.73-1.02-1.68-0.99-2.66c-0.02-1.06,0.29-2.1,0.89-2.98
				c0.59-0.87,1.35-1.59,2.24-2.14c0.95-0.58,1.99-1,3.08-1.25c1.11-0.27,2.25-0.41,3.39-0.42c2.18-0.07,4.34,0.49,6.22,1.61
				c1.69,1.06,3.1,2.51,4.12,4.23l6.79-4.49c-1.5-2.97-3.94-5.35-6.94-6.79C26.84,0.68,23.54-0.03,20.21,0
				C17.95,0,15.7,0.31,13.53,0.94c-2.08,0.59-4.05,1.51-5.85,2.71C5.97,4.81,4.54,6.35,3.51,8.14c-1.07,1.91-1.61,4.07-1.57,6.26
				c-0.09,2.14,0.4,4.27,1.41,6.16c0.92,1.59,2.21,2.93,3.76,3.92c1.7,1.07,3.55,1.9,5.48,2.45c2.09,0.63,4.28,1.18,6.58,1.67
				c1.32,0.28,2.61,0.59,3.86,0.94c1.17,0.32,2.3,0.79,3.34,1.41c0.92,0.54,1.72,1.27,2.35,2.14c0.23,0.34,0.41,0.7,0.54,1.09
				c0.03,0.93,0.09,1.9,0.16,2.92c0.01,0.21,0.02,0.43,0.04,0.64c-0.13,0.71-0.4,1.38-0.79,1.98c-0.65,0.96-1.5,1.76-2.51,2.35
				c-1.08,0.64-2.27,1.1-3.5,1.36c-1.25,0.27-2.53,0.41-3.81,0.42c-2.54,0.1-5.05-0.52-7.25-1.77c-2.02-1.28-3.81-2.9-5.27-4.8
				l-6.47,5.01c2,3.11,4.84,5.59,8.19,7.15c3.43,1.36,7.11,2.02,10.8,1.93c2.41,0,4.81-0.28,7.15-0.83c1.24-0.3,2.46-0.71,3.62-1.23
				v31.33h8.14v-23.8c0-5.64,1.13-10.07,3.39-13.31c2.26-3.24,5.9-4.85,10.91-4.85c1.48-0.01,2.96,0.2,4.38,0.63l0.52-8.25
				C56.43,30.84,55.87,30.7,55.3,30.63z"/>
		</g>
	</g>
	<g class="st0">
		<path d="M737.32,413.76c-0.15-0.19-0.34-0.33-0.58-0.44c-0.24-0.11-0.46-0.17-0.69-0.17c-0.11,0-0.23,0.01-0.34,0.03
			c-0.12,0.02-0.22,0.06-0.32,0.12s-0.17,0.13-0.23,0.22c-0.06,0.09-0.09,0.21-0.09,0.35c0,0.12,0.02,0.22,0.07,0.3
			c0.05,0.08,0.12,0.15,0.22,0.21c0.1,0.06,0.21,0.12,0.34,0.17s0.28,0.1,0.45,0.16c0.24,0.08,0.49,0.17,0.75,0.26
			c0.26,0.1,0.5,0.22,0.71,0.38s0.39,0.36,0.53,0.59c0.14,0.24,0.21,0.53,0.21,0.89c0,0.41-0.07,0.76-0.22,1.05
			c-0.15,0.3-0.35,0.54-0.6,0.74c-0.25,0.19-0.54,0.34-0.87,0.43c-0.33,0.09-0.66,0.14-1.01,0.14c-0.51,0-1-0.09-1.47-0.26
			c-0.47-0.18-0.87-0.43-1.18-0.75l1.12-1.14c0.17,0.21,0.4,0.39,0.69,0.54c0.28,0.14,0.56,0.21,0.84,0.21
			c0.13,0,0.25-0.01,0.37-0.04c0.12-0.03,0.23-0.07,0.31-0.13c0.09-0.06,0.16-0.14,0.22-0.24c0.05-0.1,0.08-0.22,0.08-0.36
			c0-0.13-0.03-0.25-0.1-0.34c-0.07-0.09-0.16-0.18-0.29-0.25c-0.12-0.08-0.28-0.15-0.46-0.21c-0.18-0.06-0.39-0.13-0.62-0.21
			c-0.23-0.07-0.45-0.16-0.67-0.26c-0.22-0.1-0.41-0.23-0.58-0.39c-0.17-0.16-0.31-0.35-0.41-0.57c-0.1-0.22-0.15-0.5-0.15-0.82
			c0-0.39,0.08-0.73,0.24-1.01c0.16-0.28,0.37-0.51,0.63-0.69c0.26-0.18,0.55-0.31,0.88-0.39c0.33-0.08,0.66-0.12,0.99-0.12
			c0.4,0,0.81,0.07,1.22,0.22s0.78,0.36,1.1,0.65L737.32,413.76z"/>
		<path d="M747.79,419l-0.55-1.39h-2.74l-0.52,1.39h-1.86l2.97-7.08h1.66l2.94,7.08H747.79z M745.89,413.81l-0.9,2.43h1.78
			L745.89,413.81z"/>
		<path d="M760.2,419l0.04-5.01h-0.03l-1.84,5.01h-1.2l-1.79-5.01h-0.03l0.04,5.01h-1.61v-7.08h2.43l1.61,4.54h0.04l1.54-4.54h2.47
			V419H760.2z"/>
		<path d="M771.63,419l-0.55-1.39h-2.74l-0.52,1.39h-1.86l2.97-7.08h1.66l2.94,7.08H771.63z M769.73,413.81l-0.9,2.43h1.78
			L769.73,413.81z"/>
		<path d="M782.12,419l-2.85-4.63h-0.03l0.04,4.63h-1.66v-7.08h1.95l2.84,4.62h0.03l-0.04-4.62h1.66V419H782.12z"/>
		<path d="M792.05,413.38V419h-1.71v-5.62h-2v-1.46h5.71v1.46H792.05z"/>
		<path d="M802.8,419v-2.96h-2.76V419h-1.71v-7.08h1.71v2.68h2.76v-2.68h1.71V419H802.8z"/>
		<path d="M814.27,419l-0.55-1.39h-2.74l-0.52,1.39h-1.86l2.97-7.08h1.66l2.94,7.08H814.27z M812.37,413.81l-0.9,2.43h1.78
			L812.37,413.81z"/>
		<path d="M829.87,419l-1.54-2.81h-0.58V419h-1.67v-7.08h2.7c0.34,0,0.67,0.04,0.99,0.11c0.32,0.07,0.61,0.19,0.87,0.35
			c0.26,0.17,0.46,0.39,0.62,0.66s0.23,0.61,0.23,1.02c0,0.48-0.13,0.88-0.39,1.21c-0.26,0.33-0.62,0.56-1.08,0.7l1.85,3.03H829.87z
			 M829.8,414.09c0-0.17-0.04-0.3-0.11-0.41c-0.07-0.1-0.16-0.18-0.27-0.24s-0.23-0.1-0.37-0.12c-0.14-0.02-0.27-0.03-0.4-0.03
			h-0.91v1.65h0.81c0.14,0,0.29-0.01,0.43-0.04c0.15-0.02,0.28-0.07,0.4-0.12c0.12-0.06,0.22-0.15,0.3-0.26
			S829.8,414.27,829.8,414.09z"/>
		<path d="M836.21,419v-7.08h4.76v1.44h-3.11v1.34h2.94v1.37h-2.94v1.47h3.29V419H836.21z"/>
		<path d="M845.78,419v-7.08h1.72V419H845.78z"/>
		<path d="M854.15,413.38v1.46h2.74v1.41h-2.74V419h-1.69v-7.08h4.66v1.46H854.15z"/>
		<path d="M863.41,413.38v1.46h2.74v1.41h-2.74V419h-1.69v-7.08h4.66v1.46H863.41z"/>
	</g>
	<g class="st0">
		<path d="M773.6,432.21c-0.2,0.3-0.46,0.53-0.78,0.68c-0.32,0.15-0.65,0.23-0.99,0.23c-0.37,0-0.7-0.06-1-0.19
			c-0.3-0.13-0.55-0.3-0.76-0.52s-0.37-0.48-0.49-0.78s-0.17-0.62-0.17-0.97s0.06-0.67,0.17-0.97c0.12-0.3,0.28-0.56,0.49-0.78
			s0.46-0.39,0.76-0.52c0.3-0.13,0.63-0.19,1-0.19c0.34,0,0.67,0.08,0.99,0.23c0.32,0.16,0.58,0.39,0.78,0.7h0.02v-3.69h0.68V433
			h-0.68v-0.79H773.6z M770.13,430.66c0,0.26,0.04,0.5,0.12,0.73c0.08,0.23,0.2,0.43,0.35,0.6s0.33,0.3,0.55,0.4
			c0.22,0.1,0.47,0.15,0.75,0.15c0.26,0,0.5-0.05,0.72-0.15c0.22-0.1,0.41-0.23,0.57-0.39c0.16-0.17,0.29-0.37,0.38-0.59
			c0.09-0.23,0.14-0.48,0.14-0.75s-0.04-0.52-0.14-0.75c-0.09-0.23-0.21-0.43-0.38-0.6c-0.16-0.17-0.35-0.3-0.57-0.4
			s-0.46-0.15-0.72-0.15c-0.28,0-0.53,0.05-0.75,0.15c-0.22,0.1-0.4,0.24-0.55,0.41s-0.27,0.37-0.35,0.6
			C770.17,430.16,770.13,430.4,770.13,430.66z"/>
		<path d="M783.88,430.52c0,0.05,0,0.1,0,0.15c0,0.05,0,0.11-0.01,0.17h-3.88c0.01,0.23,0.05,0.45,0.14,0.66
			c0.09,0.21,0.21,0.39,0.36,0.54s0.33,0.28,0.54,0.37s0.43,0.13,0.67,0.13c0.35,0,0.66-0.08,0.92-0.25
			c0.26-0.16,0.45-0.35,0.58-0.56l0.51,0.4c-0.28,0.35-0.59,0.61-0.93,0.76s-0.7,0.23-1.08,0.23c-0.35,0-0.67-0.06-0.96-0.19
			c-0.3-0.12-0.55-0.29-0.77-0.51s-0.38-0.48-0.5-0.78c-0.12-0.3-0.19-0.63-0.19-0.98s0.06-0.68,0.18-0.98
			c0.12-0.3,0.29-0.56,0.5-0.78c0.21-0.22,0.46-0.39,0.75-0.52c0.29-0.12,0.6-0.18,0.93-0.18c0.37,0,0.69,0.06,0.97,0.18
			c0.28,0.12,0.51,0.29,0.7,0.5s0.33,0.46,0.43,0.74C783.83,429.9,783.88,430.2,783.88,430.52z M783.19,430.3
			c-0.02-0.44-0.16-0.8-0.43-1.09s-0.64-0.44-1.12-0.44c-0.23,0-0.44,0.04-0.63,0.12c-0.19,0.08-0.36,0.2-0.51,0.34
			c-0.15,0.14-0.26,0.31-0.35,0.49c-0.09,0.18-0.14,0.38-0.15,0.58H783.19z"/>
		<path d="M791.33,429.43c-0.1-0.19-0.25-0.35-0.46-0.47c-0.2-0.12-0.44-0.19-0.69-0.19c-0.12,0-0.24,0.01-0.36,0.04
			c-0.12,0.03-0.23,0.07-0.32,0.13c-0.09,0.06-0.17,0.14-0.23,0.23c-0.06,0.09-0.08,0.2-0.08,0.33c0,0.22,0.09,0.39,0.27,0.5
			c0.18,0.12,0.46,0.21,0.85,0.29c0.55,0.11,0.96,0.28,1.23,0.5c0.26,0.22,0.4,0.51,0.4,0.88c0,0.27-0.05,0.49-0.16,0.67
			c-0.1,0.18-0.24,0.33-0.4,0.45c-0.17,0.12-0.35,0.2-0.56,0.25c-0.21,0.05-0.42,0.08-0.64,0.08c-0.35,0-0.7-0.07-1.03-0.22
			c-0.33-0.15-0.61-0.38-0.82-0.69l0.54-0.4c0.12,0.21,0.3,0.38,0.53,0.52c0.23,0.14,0.49,0.21,0.77,0.21
			c0.15,0,0.29-0.01,0.42-0.04c0.13-0.03,0.25-0.07,0.35-0.14c0.1-0.07,0.18-0.15,0.24-0.25c0.06-0.1,0.09-0.23,0.09-0.39
			c0-0.25-0.12-0.43-0.35-0.55c-0.24-0.12-0.58-0.24-1.02-0.34c-0.14-0.03-0.29-0.08-0.44-0.12c-0.16-0.05-0.3-0.12-0.44-0.22
			c-0.13-0.1-0.24-0.22-0.33-0.36c-0.09-0.15-0.13-0.33-0.13-0.55c0-0.24,0.05-0.44,0.14-0.61c0.09-0.17,0.22-0.31,0.38-0.42
			c0.16-0.11,0.33-0.19,0.53-0.25c0.2-0.05,0.41-0.08,0.62-0.08c0.33,0,0.64,0.07,0.95,0.22c0.31,0.15,0.54,0.35,0.69,0.62
			L791.33,429.43z"/>
		<path d="M797.61,426.52c0,0.14-0.05,0.26-0.15,0.35s-0.21,0.13-0.33,0.13s-0.23-0.04-0.33-0.13s-0.15-0.21-0.15-0.35
			c0-0.14,0.05-0.25,0.15-0.34s0.21-0.13,0.33-0.13s0.23,0.04,0.33,0.13S797.61,426.38,797.61,426.52z M797.47,433h-0.68v-4.68h0.68
			V433z"/>
		<path d="M803.03,433.94c0.19,0.24,0.44,0.44,0.77,0.61s0.67,0.25,1.02,0.25c0.33,0,0.62-0.05,0.85-0.14s0.42-0.23,0.57-0.4
			c0.14-0.17,0.25-0.36,0.31-0.58s0.1-0.46,0.1-0.71v-0.88h-0.02c-0.18,0.29-0.43,0.52-0.76,0.68s-0.67,0.24-1.01,0.24
			c-0.37,0-0.7-0.06-1-0.18c-0.3-0.12-0.55-0.29-0.76-0.5s-0.37-0.46-0.49-0.75c-0.12-0.29-0.17-0.61-0.17-0.95
			c0-0.33,0.06-0.65,0.17-0.94c0.12-0.29,0.28-0.55,0.49-0.77s0.46-0.39,0.76-0.52c0.3-0.13,0.63-0.19,1-0.19
			c0.34,0,0.67,0.08,1,0.24c0.33,0.16,0.58,0.39,0.77,0.69h0.02v-0.81h0.68v4.64c0,0.25-0.04,0.52-0.1,0.81
			c-0.07,0.29-0.2,0.55-0.39,0.79c-0.19,0.24-0.45,0.44-0.77,0.6c-0.33,0.16-0.75,0.24-1.27,0.24c-0.43,0-0.85-0.08-1.24-0.25
			c-0.39-0.17-0.73-0.4-1.01-0.69L803.03,433.94z M803.16,430.6c0,0.25,0.04,0.48,0.12,0.7s0.2,0.41,0.35,0.58
			c0.15,0.17,0.33,0.3,0.55,0.4c0.22,0.1,0.47,0.14,0.75,0.14c0.26,0,0.5-0.04,0.72-0.13c0.22-0.09,0.41-0.21,0.57-0.37
			c0.16-0.16,0.29-0.35,0.38-0.58c0.09-0.22,0.14-0.47,0.14-0.75c0-0.25-0.04-0.48-0.14-0.7c-0.09-0.22-0.21-0.41-0.38-0.58
			c-0.16-0.17-0.35-0.3-0.57-0.4c-0.22-0.1-0.46-0.15-0.72-0.15c-0.28,0-0.53,0.05-0.75,0.15c-0.22,0.1-0.4,0.23-0.55,0.4
			c-0.15,0.17-0.27,0.36-0.35,0.58C803.2,430.12,803.16,430.35,803.16,430.6z"/>
		<path d="M813.21,428.32c0.01,0.13,0.02,0.27,0.03,0.42c0.01,0.15,0.01,0.28,0.01,0.38h0.02c0.13-0.27,0.35-0.5,0.65-0.67
			s0.62-0.25,0.95-0.25c0.59,0,1.04,0.18,1.33,0.53c0.3,0.35,0.45,0.82,0.45,1.4V433h-0.68v-2.59c0-0.25-0.02-0.47-0.06-0.67
			s-0.11-0.37-0.21-0.52c-0.1-0.14-0.23-0.25-0.39-0.33c-0.16-0.08-0.37-0.12-0.62-0.12c-0.18,0-0.36,0.04-0.53,0.11
			s-0.32,0.19-0.46,0.33c-0.13,0.15-0.24,0.34-0.32,0.57c-0.08,0.23-0.12,0.5-0.12,0.81v2.4h-0.68v-3.65c0-0.13,0-0.29-0.01-0.49
			c-0.01-0.2-0.02-0.38-0.03-0.54H813.21z"/>
		<path d="M826.17,430.52c0,0.05,0,0.1,0,0.15c0,0.05,0,0.11-0.01,0.17h-3.88c0.01,0.23,0.05,0.45,0.14,0.66s0.21,0.39,0.36,0.54
			s0.33,0.28,0.54,0.37c0.21,0.09,0.43,0.13,0.67,0.13c0.35,0,0.66-0.08,0.92-0.25c0.26-0.16,0.45-0.35,0.58-0.56l0.51,0.4
			c-0.28,0.35-0.59,0.61-0.92,0.76c-0.34,0.15-0.7,0.23-1.08,0.23c-0.35,0-0.67-0.06-0.96-0.19c-0.3-0.12-0.55-0.29-0.77-0.51
			c-0.21-0.22-0.38-0.48-0.5-0.78c-0.12-0.3-0.18-0.63-0.18-0.98s0.06-0.68,0.18-0.98c0.12-0.3,0.29-0.56,0.5-0.78
			c0.21-0.22,0.46-0.39,0.75-0.52c0.29-0.12,0.6-0.18,0.93-0.18c0.37,0,0.69,0.06,0.97,0.18c0.28,0.12,0.51,0.29,0.7,0.5
			s0.33,0.46,0.43,0.74C826.12,429.9,826.17,430.2,826.17,430.52z M825.48,430.3c-0.02-0.44-0.16-0.8-0.43-1.09
			c-0.26-0.29-0.64-0.44-1.12-0.44c-0.23,0-0.44,0.04-0.63,0.12c-0.19,0.08-0.36,0.2-0.51,0.34s-0.26,0.31-0.35,0.49
			c-0.09,0.18-0.14,0.38-0.15,0.58H825.48z"/>
		<path d="M831.12,428.86c-0.01-0.2-0.02-0.38-0.03-0.54h0.65c0.01,0.13,0.02,0.27,0.03,0.42s0.01,0.28,0.01,0.38h0.02
			c0.13-0.27,0.33-0.5,0.6-0.67s0.57-0.25,0.9-0.25c0.09,0,0.17,0,0.24,0.01c0.07,0.01,0.14,0.02,0.21,0.04l-0.09,0.65
			c-0.04-0.01-0.11-0.03-0.2-0.04c-0.09-0.01-0.19-0.02-0.28-0.02c-0.18,0-0.35,0.03-0.52,0.1c-0.17,0.07-0.31,0.17-0.44,0.31
			c-0.12,0.14-0.22,0.33-0.3,0.55c-0.08,0.22-0.12,0.49-0.12,0.8V433h-0.68v-3.65C831.13,429.22,831.13,429.06,831.12,428.86z"/>
	</g>
</g>
</svg>
